<svg preserveAspectRatio="xMidYMid meet" data-bbox="2.5 2.5 195 195" xmlns="http://www.w3.org/2000/svg" viewBox="2.5 2.5 195 195" role="presentation" aria-hidden="true">
    <g>
        <path fill= 'rgb(176, 161, 113)' d="M100 2.5C46.2 2.5 2.5 46.2 2.5 100s43.7 97.5 97.5 97.5 97.5-43.7 97.5-97.5S153.8 2.5 100 2.5zm90.1 79.1L154.4 68l6.1-37.2c14.9 13.1 25.5 30.8 29.6 50.8zM45.7 34.2l28.6 10.3A60.8 60.8 0 0 0 50.6 64l-4.9-29.8zm103.7 29.7c-6.1-8.3-14.3-15.1-23.7-19.5l28.6-10.3-4.9 29.8zm5.4 45.8c-4.7 26.1-27.5 46-54.8 46-27.4 0-50.2-19.8-54.8-45.9-.6-3.2-.9-6.4-.9-9.7 0-30.7 25-55.7 55.7-55.7s55.7 25 55.7 55.7c0 3.2-.3 6.5-.9 9.6zm-70.3-69L100 14.1l15.5 26.6c-4.9-1.3-10.1-2-15.5-2-5.3 0-10.5.7-15.5 2zm37-.7L103 8.1c20.1.6 38.6 7.8 53.5 19.4l-35 12.5zm-43 0l-35-12.6C58.4 15.9 76.9 8.8 97 8.1L78.5 40zm-39.8 60c0 1.4.1 2.9.2 4.3L16.7 85l27.6-10.5c-3.6 7.8-5.6 16.4-5.6 25.5zm17.9 43.2l-29.8-.3L41.2 117c2.9 10 8.2 19 15.4 26.2zM94.5 161L71 180.6l-5.5-30c8.5 5.8 18.4 9.5 29 10.4zm39.9-10.3l-5.5 30-23.4-19.7c10.6-.9 20.5-4.6 28.9-10.3zm24.4-33.7l14.4 25.9-29.8.3c7.2-7.2 12.5-16.2 15.4-26.2zm-3.1-42.5L183.3 85l-22.2 19.3c.1-1.4.2-2.8.2-4.3 0-9.1-2-17.7-5.6-25.5zM39.5 30.9l6.1 37.2L9.9 81.6c4.1-20 14.7-37.7 29.6-50.7zm-30.3 55l29 25.2-18.6 33.4C12.2 131.2 8.1 116.1 8.1 100c0-4.8.3-9.5 1.1-14.1zm12.7 62.5l37.7.3 6.7 36.8c-18.5-7.3-34-20.4-44.4-37.1zm49.7 39l28.4-23.8 28.4 23.8c-8.9 2.9-18.5 4.5-28.4 4.5-9.9 0-19.4-1.5-28.4-4.5zm62.1-1.8l6.7-36.8 37.7-.3c-10.4 16.6-25.9 29.7-44.4 37.1zm46.8-41.2L161.8 111l29-25.2c.7 4.6 1.1 9.3 1.1 14.1 0 16.2-4.1 31.3-11.4 44.5z"></path>
    </g>
</svg>